<?xml version="1.0" standalone="no"?>
<!DOCTYPE svg PUBLIC "-//W3C//DTD SVG 20010904//EN"
 "http://www.w3.org/TR/2001/REC-SVG-20010904/DTD/svg10.dtd">
<svg version="1.0" xmlns="http://www.w3.org/2000/svg"
 width="300.000000pt" height="225.000000pt" viewBox="0 0 300.000000 225.000000"
 preserveAspectRatio="xMidYMid meet">
<metadata>
Created by potrace 1.10, written by Peter Selinger 2001-2011
</metadata>
<g transform="translate(0.000000,225.000000) scale(0.100000,-0.100000)"
fill="#000000" stroke="none">
<path d="M980 2125 c0 -77 4 -125 10 -125 6 0 10 48 10 125 0 77 -4 125 -10
125 -6 0 -10 -48 -10 -125z"/>
<path d="M1538 2243 c6 -2 18 -2 25 0 6 3 1 5 -13 5 -14 0 -19 -2 -12 -5z"/>
<path d="M1755 2240 c66 -4 151 -11 189 -15 57 -7 68 -6 64 6 -4 11 -41 14
-189 15 -176 2 -179 2 -64 -6z"/>
<path d="M2086 2243 c-1 -1 -14 -4 -30 -7 -65 -12 -30 -16 120 -13 87 1 169
-2 182 -6 18 -7 22 -5 22 12 0 21 -4 21 -146 19 -80 -2 -146 -4 -148 -5z"/>
<path d="M2442 2230 c0 -14 2 -19 5 -12 2 6 2 18 0 25 -3 6 -5 1 -5 -13z"/>
<path d="M2498 2243 c7 -3 16 -2 19 1 4 3 -2 6 -13 5 -11 0 -14 -3 -6 -6z"/>
<path d="M1470 2216 c0 -8 5 -18 10 -21 6 -4 8 -10 6 -14 -7 -11 -14 -97 -21
-241 -3 -69 -8 -164 -11 -211 l-6 -86 -34 -15 c-39 -18 -44 -8 -12 22 l22 20
-31 -6 -31 -6 9 38 c18 83 20 100 10 79 -9 -19 -10 -19 -10 3 -1 12 4 22 9 22
15 0 8 33 -9 46 -12 9 -9 12 13 18 32 8 30 29 -2 34 -13 2 -19 8 -16 14 5 7
-4 9 -27 5 -47 -9 -202 -25 -274 -29 l-60 -3 -3 33 c-2 24 2 38 15 47 17 13
16 14 -7 19 -70 14 -80 14 -80 -5 0 -14 7 -19 25 -19 20 0 25 -5 25 -24 0 -13
2 -30 5 -38 4 -11 -25 -12 -162 -7 -187 7 -303 23 -347 46 l-29 16 19 -25 c10
-14 23 -24 27 -21 5 3 4 -5 -3 -17 -10 -18 -9 -24 1 -31 27 -17 45 -10 44 19
0 25 3 27 35 24 19 -2 42 -11 50 -20 14 -14 13 -15 -2 -3 -16 12 -18 10 -18
-15 0 -19 3 -25 9 -16 6 10 10 10 20 -1 9 -12 8 -15 -6 -19 -10 -2 -29 -1 -43
3 -14 4 -38 7 -55 7 -28 1 -29 0 -8 -10 12 -6 22 -18 22 -27 0 -9 1 -38 1 -65
1 -29 -3 -52 -11 -56 -18 -11 13 -24 101 -43 117 -25 190 -34 190 -25 0 4 -7
8 -15 8 -8 0 -20 9 -27 20 -16 25 -28 26 -28 3 -1 -14 -4 -12 -15 7 -9 15 -14
19 -15 10 0 -13 -1 -13 -10 0 -6 10 -10 11 -10 3 0 -7 -9 -13 -21 -13 -11 0
-18 4 -15 9 3 5 -1 11 -9 15 -8 3 -15 0 -15 -7 -1 -7 -6 -2 -13 11 -7 12 -16
19 -20 16 -4 -4 -14 1 -22 12 -16 21 -20 38 -6 30 5 -4 4 5 -2 18 -8 16 -14
21 -19 13 -5 -7 -8 -1 -8 15 0 15 5 30 12 34 7 5 9 2 5 -8 -4 -11 2 -17 19
-21 13 -2 24 0 24 4 0 5 -6 9 -12 9 -9 0 -8 3 2 9 8 6 18 7 23 4 4 -3 58 -7
118 -9 96 -4 109 -3 97 10 -7 8 -14 11 -16 7 -1 -4 -16 -6 -32 -3 -24 3 -29 9
-26 26 4 30 44 34 63 6 11 -16 18 -18 28 -10 8 7 31 9 57 5 24 -3 60 -9 81
-12 21 -3 51 1 70 8 l31 13 -24 7 c-21 6 -19 7 13 8 27 1 37 -3 37 -14 0 -11
7 -14 28 -10 15 3 38 7 51 9 14 2 29 10 35 17 7 9 27 13 51 12 33 -1 36 0 15
7 -23 7 -21 8 13 9 34 1 37 -1 37 -28 0 -24 -5 -29 -31 -35 -52 -10 -79 -7
-79 9 0 9 -6 12 -15 9 -8 -4 -13 -10 -10 -14 3 -5 -1 -10 -7 -12 -14 -5 -19
-118 -5 -118 4 0 2 -9 -5 -19 -9 -15 -9 -23 1 -35 8 -9 18 -16 24 -16 6 0 7 3
4 6 -3 4 0 16 8 28 10 13 14 41 13 76 l-1 55 -6 -62 c-3 -34 -12 -68 -18 -75
-9 -8 -13 -9 -13 -1 0 7 5 15 10 18 13 8 5 116 -9 124 -5 3 18 5 50 5 61 -1
79 -7 60 -19 -6 -3 -11 0 -12 7 -1 7 -4 2 -8 -12 -5 -15 -3 -35 5 -51 7 -15
11 -29 8 -32 -3 -3 -6 -19 -6 -36 -1 -32 -12 -40 -65 -44 -24 -1 -32 -17 -10
-17 16 0 19 -30 3 -30 -6 0 -3 -7 6 -14 10 -7 14 -16 10 -20 -4 -4 -8 -71 -9
-148 -1 -93 -6 -143 -13 -148 -7 -4 -11 -10 -10 -14 1 -4 -1 -17 -4 -29 -6
-20 -7 -20 -16 -5 -7 11 -7 31 -1 57 5 22 7 41 6 43 -2 2 -6 34 -9 72 -3 39
-10 73 -16 76 -5 3 -9 32 -9 63 1 31 6 54 10 51 15 -9 10 13 -6 26 -19 16 -22
7 -29 -87 -5 -70 -2 -78 25 -75 4 1 4 -151 0 -190 -2 -19 -17 -5 -19 17 -1 14
3 25 10 25 6 0 8 3 5 6 -11 11 -36 -16 -30 -32 3 -8 0 -14 -6 -14 -7 0 -14 7
-17 15 -4 8 -10 12 -16 9 -5 -4 -5 -11 1 -18 6 -7 8 -16 4 -19 -13 -13 -23 -7
-24 16 -1 16 -2 18 -6 5 -6 -22 -19 -23 -31 -2 -6 11 -11 13 -16 5 -4 -6 -14
-11 -22 -11 -8 0 -12 5 -9 10 3 6 -1 10 -10 10 -9 0 -13 -4 -10 -10 3 -5 1
-10 -4 -10 -6 0 -11 5 -11 10 0 6 -4 10 -10 10 -5 0 -9 -5 -7 -11 1 -6 -4 -14
-12 -17 -10 -3 -12 0 -7 14 6 16 4 15 -14 -3 -25 -27 -32 -29 -23 -7 5 14 3
15 -17 4 -21 -11 -22 -10 -17 9 3 14 0 21 -8 21 -20 0 -30 -21 -14 -31 11 -7
11 -9 -2 -9 -8 0 -24 7 -35 16 -10 8 -14 13 -7 10 6 -4 14 -2 18 4 7 11 -63 9
-82 -3 -14 -9 -17 3 -5 18 4 6 3 7 -2 3 -16 -13 -26 -9 -26 9 0 9 -8 25 -17
35 -16 18 -16 19 15 13 20 -3 32 -1 32 5 0 6 4 8 10 5 5 -3 18 -1 29 5 13 7
22 7 26 0 3 -5 -3 -10 -15 -10 -11 0 -23 -7 -27 -16 -5 -13 -7 -13 -14 -2 -7
10 -9 11 -9 0 0 -7 -4 -10 -10 -7 -5 3 -10 0 -10 -8 0 -9 9 -12 30 -9 17 2 30
10 30 18 0 8 9 14 21 14 14 0 19 5 17 18 -3 13 -12 16 -38 15 -25 -2 -31 0
-20 7 20 13 73 13 65 0 -3 -5 -1 -10 5 -10 7 0 19 -8 28 -18 10 -10 14 -13 9
-6 -5 7 3 13 22 17 21 5 28 11 26 24 -2 10 -4 23 -4 29 -1 8 -20 7 -66 -1 -62
-12 -69 -11 -66 9 1 5 -5 6 -14 3 -8 -4 -15 -2 -15 3 0 6 16 10 35 10 19 0 35
-4 35 -9 0 -6 13 -6 33 0 33 9 194 5 204 -5 4 -3 26 -6 49 -6 24 0 45 -3 47
-7 3 -5 -20 -7 -51 -6 -32 1 -47 -1 -34 -4 20 -4 26 -16 25 -50 -1 -7 5 -13
13 -13 10 0 11 6 3 26 -5 15 -7 29 -4 32 7 8 15 -2 20 -27 2 -11 7 -26 10 -31
8 -13 35 -13 35 -1 0 5 3 17 7 26 5 14 2 16 -15 11 -20 -7 -40 9 -27 22 3 3
10 0 15 -8 7 -11 10 -12 10 -2 0 7 5 10 12 6 6 -4 8 -3 4 4 -3 5 0 13 6 15 8
3 6 6 -4 6 -10 1 -18 5 -18 11 0 5 -8 7 -17 4 -12 -4 -14 -3 -6 3 6 4 13 42
15 86 l3 77 -40 0 c-22 0 -35 -4 -29 -8 18 -12 5 -129 -14 -137 -9 -3 -18 -2
-20 4 -2 6 -13 4 -28 -5 -17 -12 -28 -13 -37 -6 -7 6 -34 12 -61 14 l-49 3 -1
62 c-1 55 1 63 19 66 13 2 9 5 -12 8 l-33 6 0 -78 c0 -43 -4 -80 -9 -83 -12
-8 -41 4 -41 16 0 5 5 6 10 3 12 -8 2 100 -12 128 -18 36 -28 15 -28 -63 0
-44 -3 -80 -7 -80 -17 0 -34 18 -32 31 4 24 -13 119 -21 119 -4 0 -4 -17 1
-37 14 -59 11 -103 -6 -103 -11 0 -15 18 -17 78 -3 66 -5 77 -20 76 -10 -1
-18 2 -18 7 0 5 -3 9 -7 9 -5 0 -7 -40 -5 -88 4 -96 0 -92 77 -92 29 1 29 0
10 -15 -11 -9 -15 -14 -10 -12 6 3 20 0 32 -6 l21 -12 -20 -24 c-16 -21 -22
-23 -39 -13 -10 7 -19 8 -19 3 0 -5 -8 -7 -17 -5 -10 3 -27 -2 -38 -11 -19
-16 -19 -16 10 -11 28 6 29 5 11 -8 -14 -12 -22 -12 -37 -3 -27 17 -22 66 8
80 13 6 23 14 23 19 0 5 -5 6 -12 2 -7 -4 -8 -3 -4 4 10 16 1 15 -33 -3 -31
-16 -41 -12 -41 17 0 13 7 18 25 18 14 0 25 4 25 9 0 5 -9 7 -20 4 -18 -5 -19
1 -22 78 -3 78 -4 84 -25 87 -13 2 -23 -2 -23 -8 0 -6 5 -8 11 -4 8 4 9 -14 5
-62 -3 -40 -2 -59 3 -44 5 18 9 2 13 -60 3 -47 2 -89 -2 -95 -4 -5 -15 -43
-24 -84 -16 -72 -17 -150 -1 -408 1 -29 -1 -53 -6 -53 -5 0 -6 -7 -3 -15 15
-39 24 6 19 101 -4 73 -2 104 6 104 6 0 9 -6 6 -14 -3 -8 -3 -17 0 -20 8 -8 7
-110 -2 -188 -6 -55 -5 -68 6 -68 12 0 12 -2 0 -9 -8 -6 -10 -14 -5 -22 5 -8
7 -22 6 -31 -2 -10 1 -18 7 -18 5 0 12 15 14 33 3 28 4 27 4 -8 0 -36 7 -63
21 -88 7 -14 -33 10 -47 27 -8 9 -19 33 -27 53 l-13 38 -1 -32 c0 -19 9 -43
25 -61 25 -30 137 -86 157 -80 6 2 -10 12 -35 22 l-47 18 -2 76 c0 42 0 86 1
97 1 11 -5 25 -14 31 -20 15 -41 160 -25 179 8 9 9 54 4 151 l-7 138 25 -16
c36 -24 159 -59 220 -64 29 -2 120 -6 201 -8 82 -2 151 -6 154 -9 2 -3 -3 -16
-12 -30 -17 -26 -71 -42 -90 -26 -6 4 -17 4 -25 -1 -8 -6 -25 -10 -36 -10 -12
0 -24 -6 -27 -14 -5 -12 1 -13 29 -9 31 5 34 4 34 -21 0 -29 -16 -35 -23 -9
-4 15 -5 15 -6 2 -1 -9 -17 -21 -41 -28 -22 -6 -40 -16 -40 -21 0 -6 -11 -5
-25 2 -13 6 -23 14 -20 17 2 4 -13 6 -33 6 -20 -1 -36 -6 -35 -12 1 -6 -12 -9
-33 -7 -24 2 -37 -2 -41 -13 -5 -12 -7 -12 -14 -1 -7 10 -9 9 -9 -4 0 -10 5
-18 11 -18 5 0 7 -5 3 -12 -4 -7 -3 -8 4 -4 7 4 12 16 12 27 0 16 4 18 28 12
15 -3 35 -6 45 -5 11 0 15 -4 10 -11 -4 -8 -1 -8 9 1 10 8 18 9 22 3 4 -6 13
-8 21 -4 11 4 14 0 9 -13 -5 -17 -4 -17 8 -4 23 27 46 22 36 -7 -5 -12 -58
-12 -58 0 0 8 -4 7 -9 -2 -11 -18 7 -38 43 -47 20 -5 26 -2 26 11 0 12 6 15
23 10 20 -5 20 -5 3 6 -15 9 -16 13 -5 20 23 14 40 10 37 -8 -2 -10 4 -19 15
-21 10 -2 17 3 17 13 0 9 -4 14 -8 11 -5 -3 -9 1 -9 9 0 8 4 12 9 9 5 -4 4 3
-4 15 -16 25 -30 28 -21 4 3 -10 3 -15 -2 -11 -4 4 -15 2 -23 -5 -13 -10 -14
-8 -7 13 10 33 23 40 69 35 28 -2 35 0 27 8 -14 14 -14 27 -1 27 6 0 10 -7 10
-15 0 -11 12 -13 60 -10 l60 4 0 -29 c0 -16 -5 -32 -12 -36 -7 -4 -8 -3 -4 4
5 8 -1 12 -16 12 -22 -1 -22 -1 -4 -15 10 -8 23 -16 29 -18 6 -2 5 -12 -3 -26
-6 -13 -8 -21 -2 -17 5 3 13 -1 16 -10 4 -12 2 -15 -9 -11 -8 4 -17 2 -20 -4
-4 -5 -3 -9 2 -8 23 4 28 -5 25 -46 -4 -44 -22 -59 -28 -22 -1 9 1 15 6 12 4
-2 8 7 8 20 0 15 -6 25 -14 25 -8 0 -20 11 -26 25 -12 28 -28 33 -28 10 0 -8
5 -15 11 -15 5 0 7 -5 4 -10 -4 -6 -1 -9 7 -8 7 2 12 -2 11 -9 -2 -7 4 -10 13
-6 14 5 15 3 4 -18 -16 -31 -25 -39 -17 -16 4 10 3 16 -3 12 -5 -3 -18 3 -30
15 -12 12 -15 20 -8 20 8 1 6 6 -5 14 -12 9 -14 16 -8 21 6 3 11 11 11 18 0 6
-6 2 -14 -9 -9 -12 -11 -23 -5 -30 9 -11 2 -24 -13 -24 -5 0 -6 4 -3 10 3 5 0
7 -9 4 -9 -3 -12 -12 -9 -21 5 -12 3 -14 -8 -8 -12 8 -12 6 0 -8 8 -10 12 -20
9 -22 -10 -10 -38 7 -38 23 0 8 -3 13 -6 9 -4 -3 -3 -14 1 -24 5 -10 8 -21 7
-24 0 -3 21 -13 48 -23 45 -16 51 -16 72 -2 21 15 21 16 3 17 -11 0 -14 3 -7
6 17 7 44 -16 35 -31 -4 -6 0 -5 9 2 10 8 19 9 22 3 12 -19 -16 -23 -169 -24
-85 -1 -155 -5 -155 -9 0 -9 97 -21 109 -14 5 4 29 2 52 -3 27 -6 49 -6 60 0
10 5 27 5 40 1 15 -6 32 -4 47 4 35 18 55 7 46 -25 -11 -40 -14 -131 -3 -131
5 0 9 10 9 22 0 45 22 148 31 142 5 -3 9 -1 9 5 0 6 -12 14 -27 17 -30 8 -56
28 -47 37 3 3 7 65 8 139 3 132 23 233 61 308 7 14 14 28 14 32 3 18 41 98 46
98 4 0 3 -20 0 -44 -4 -27 -3 -51 4 -63 9 -14 11 -4 10 52 -1 39 -1 83 0 99
l1 29 25 -23 25 -23 0 47 c0 35 -3 45 -12 40 -7 -4 -9 -3 -5 2 4 4 22 13 40
19 26 8 32 16 34 44 2 19 6 37 9 40 4 3 4 -63 1 -148 -4 -110 -10 -157 -19
-162 -7 -5 -8 -9 -3 -9 7 0 8 -34 3 -102 -4 -55 -10 -167 -13 -247 -7 -179
-18 -302 -27 -317 -4 -7 -19 -14 -33 -16 -24 -5 -24 -4 -10 12 17 18 21 85 5
75 -5 -3 -10 -16 -10 -27 0 -42 -77 -97 -123 -89 -5 1 -6 -3 -3 -8 5 -8 47 -1
154 26 17 4 22 1 22 -13 1 -18 1 -18 12 0 10 17 27 120 29 169 0 9 4 17 9 17
5 0 7 8 6 17 -14 74 -17 105 -11 123 8 26 25 26 25 0 0 -21 28 -41 57 -39 10
1 4 6 -14 11 -18 6 -33 17 -33 24 0 8 6 11 15 8 8 -4 15 -1 15 5 0 6 -7 11
-15 11 -17 0 -17 3 -17 75 0 28 -4 55 -8 60 -9 11 -6 144 6 275 9 100 6 262
-4 269 -11 7 -3 81 8 81 11 0 22 78 26 190 6 128 9 162 18 183 5 9 5 25 0 35
-4 9 -6 21 -5 27 2 5 3 19 3 30 0 11 7 35 15 53 14 32 14 33 66 25 60 -9 142
-9 174 0 13 3 25 2 28 -4 4 -5 15 -9 25 -9 10 0 21 -9 25 -19 4 -14 19 -22 51
-27 25 -3 47 -4 50 -1 3 2 -16 8 -41 11 -35 6 -45 11 -45 26 0 13 -12 21 -47
29 -74 16 -171 25 -250 22 -62 -2 -72 0 -67 13 3 9 1 16 -5 16 -6 0 -11 -6
-11 -14z m203 -43 c-7 -2 -19 -2 -25 0 -7 3 -2 5 12 5 14 0 19 -2 13 -5z
m-930 -310 c6 -3 0 -11 -14 -16 l-24 -10 25 -7 c22 -7 23 -8 4 -9 -12 -1 -36
2 -53 5 -25 5 -31 11 -31 32 0 23 2 24 42 18 22 -4 46 -10 51 -13z m220 0 c-7
-2 -19 -2 -25 0 -7 3 -2 5 12 5 14 0 19 -2 13 -5z m52 -13 c3 -5 -3 -10 -15
-10 -12 0 -18 5 -15 10 3 6 10 10 15 10 5 0 12 -4 15 -10z m348 -77 c2 -10 -2
-30 -9 -44 -7 -15 -10 -29 -7 -33 4 -3 1 -6 -6 -6 -9 0 -11 8 -7 25 5 18 2 25
-8 25 -8 0 -17 7 -20 16 -4 11 -2 15 8 11 8 -3 17 1 20 9 7 19 24 18 29 -3z
m-758 -121 c-8 -8 -45 20 -45 34 0 13 5 11 24 -7 14 -13 23 -25 21 -27z m735
8 c0 -5 -4 -10 -10 -10 -5 0 -10 5 -10 10 0 6 5 10 10 10 6 0 10 -4 10 -10z
m34 -47 c-1 -16 -10 -55 -19 -88 -10 -33 -18 -66 -18 -72 0 -7 -4 -13 -8 -13
-4 0 -10 -15 -14 -32 -3 -18 -17 -55 -31 -83 -18 -37 -22 -42 -18 -20 13 63
21 290 11 294 -7 3 61 32 94 40 3 0 4 -11 3 -26z m66 -26 c0 -5 -4 -6 -8 -3
-4 3 -9 -11 -9 -31 -1 -20 -7 -40 -15 -44 -11 -7 -10 -11 2 -19 13 -9 13 -10
-1 -10 -12 0 -15 12 -15 59 0 33 4 58 7 55 4 -2 10 4 13 13 6 15 8 15 16 3 6
-8 10 -19 10 -23z m-345 -145 c-11 -12 -13 6 -7 73 l7 70 3 -69 c2 -37 0 -71
-3 -74z m282 56 c-2 -13 -4 -5 -4 17 -1 22 1 32 4 23 2 -10 2 -28 0 -40z m-23
-76 c3 -5 -1 -9 -9 -9 -8 0 -12 4 -9 9 3 4 7 8 9 8 2 0 6 -4 9 -8z m-474 -45
c0 -7 -9 -13 -21 -14 -17 -2 -18 1 -9 13 15 17 30 18 30 1z m260 -37 c0 -5 -4
-10 -10 -10 -5 0 -10 5 -10 10 0 6 5 10 10 10 6 0 10 -4 10 -10z m-566 -31
c-3 -6 2 -9 12 -8 24 4 97 -23 85 -30 -5 -4 -11 -15 -13 -26 -2 -17 3 -20 32
-20 19 -1 41 -4 48 -8 7 -5 12 -3 12 7 0 8 5 18 12 22 7 5 9 2 6 -7 -3 -8 1
-20 8 -27 12 -10 14 -10 14 3 0 8 4 15 10 15 5 0 7 -7 4 -15 -4 -8 -1 -15 5
-15 6 0 11 4 11 8 0 5 7 9 15 9 8 0 15 -7 15 -16 0 -13 2 -13 9 -2 6 8 14 10
22 5 16 -10 59 -6 75 7 14 11 46 1 38 -12 -3 -5 -1 -9 5 -9 5 0 13 5 16 11 5
6 12 4 21 -8 12 -17 13 -17 14 0 0 9 7 17 16 17 9 0 14 -7 12 -17 -4 -21 -25
-24 -168 -26 -69 0 -121 6 -191 23 -108 26 -120 32 -140 74 -20 42 -41 46 -29
7 7 -24 6 -31 -6 -31 -10 0 -14 12 -14 43 0 24 3 47 6 50 10 10 45 -13 38 -24z
m106 -9 c0 -5 -7 -7 -15 -4 -8 4 -12 10 -9 15 6 11 24 2 24 -11z m480 -90 c0
20 14 2 15 -20 1 -16 -5 -20 -27 -20 -15 0 -28 -5 -28 -11 0 -5 -5 -7 -10 -4
-6 4 -8 11 -5 16 4 5 1 9 -4 9 -6 0 -11 8 -11 18 1 16 1 16 14 0 16 -21 30
-24 23 -4 -8 20 4 28 20 15 10 -9 13 -8 13 1z m20 -66 c0 -9 -8 -23 -17 -30
-17 -13 -17 -14 0 -8 14 5 17 1 15 -24 -1 -17 -5 -30 -8 -30 -17 1 -21 -4 -11
-15 8 -10 7 -14 -5 -14 -11 0 -14 7 -9 24 4 17 1 23 -11 23 -13 0 -12 6 9 34
19 25 23 36 14 45 -8 8 -7 11 6 11 9 0 17 -7 17 -16z m-663 -106 c-3 -7 -5 -2
-5 12 0 14 2 19 5 13 2 -7 2 -19 0 -25z m601 20 c6 -7 11 -17 12 -22 3 -15
-24 -25 -37 -14 -9 7 -13 7 -13 -1 0 -7 -7 -7 -25 1 -18 8 -22 15 -15 22 14
14 33 15 42 1 5 -6 8 -3 8 8 0 20 13 22 28 5z m-268 -83 c14 -16 10 -18 -14
-9 -9 3 -16 10 -16 15 0 14 16 11 30 -6z m592 -45 c-2 -16 -6 -30 -8 -30 -2 0
-4 14 -4 30 0 17 4 30 8 30 5 0 7 -13 4 -30z m-355 -135 c0 -8 -7 -15 -14 -15
-8 0 -11 5 -7 12 4 7 3 8 -5 4 -9 -6 -9 -11 0 -22 10 -12 9 -13 -5 -8 -19 7
-22 40 -3 47 18 6 34 -2 34 -18z m3 -57 c0 -4 -4 -8 -9 -8 -6 0 -12 4 -15 8
-3 5 1 9 9 9 8 0 15 -4 15 -9z"/>
<path d="M615 1273 c11 -3 23 -10 27 -17 5 -7 8 -5 8 7 0 12 -7 17 -27 16 -22
-1 -23 -2 -8 -6z"/>
<path d="M1150 1080 c0 -5 5 -10 11 -10 5 0 7 5 4 10 -3 6 -8 10 -11 10 -2 0
-4 -4 -4 -10z"/>
<path d="M2495 2220 c3 -5 8 -10 11 -10 2 0 4 5 4 10 0 6 -5 10 -11 10 -5 0
-7 -4 -4 -10z"/>
<path d="M1768 2203 c12 -2 32 -2 45 0 12 2 2 4 -23 4 -25 0 -35 -2 -22 -4z"/>
<path d="M1843 2194 c1 -1 14 -4 29 -6 15 -2 30 -7 34 -11 4 -4 18 -4 30 -1
17 4 26 1 30 -10 6 -15 8 -15 24 -1 12 11 28 14 53 10 20 -4 38 -1 42 5 3 5 0
11 -7 11 -28 3 -238 6 -235 3z"/>
<path d="M2123 2192 c-13 -2 -23 -8 -23 -14 0 -6 13 -8 30 -6 17 3 30 1 30 -4
0 -4 6 -8 14 -8 17 0 30 30 13 31 -7 0 -19 2 -27 3 -8 1 -25 0 -37 -2z"/>
<path d="M2227 2175 c2 -8 0 -22 -5 -32 -9 -15 -27 -18 -133 -20 -125 -3 -152
-10 -124 -33 9 -7 15 -8 15 -2 0 6 -6 13 -12 15 -7 3 41 5 108 5 92 -1 126 3
145 15 20 12 38 13 99 6 41 -5 81 -12 89 -14 8 -3 11 0 8 9 -11 28 19 38 107
34 47 -2 85 -7 83 -12 -2 -5 -35 -8 -75 -7 -64 2 -72 0 -72 -16 0 -10 4 -14 8
-8 12 17 32 16 32 -2 1 -16 2 -16 13 -3 9 11 33 15 97 15 l85 -1 -1 -34 c0
-19 -3 -51 -7 -70 -3 -19 -9 -64 -12 -100 -4 -38 -13 -70 -22 -77 -9 -7 -11
-13 -4 -18 6 -3 11 -13 11 -21 0 -9 -5 -12 -12 -8 -7 5 -9 0 -6 -14 4 -14 2
-19 -7 -16 -7 3 -15 -4 -18 -16 -4 -17 -3 -19 9 -9 11 9 14 8 14 -6 0 -15 -8
-16 -72 -11 -48 4 -66 3 -53 -3 11 -5 31 -10 45 -10 33 -1 11 -23 -24 -23 -15
0 -26 -6 -26 -14 0 -12 -19 -19 -42 -15 -5 0 -8 -3 -8 -9 0 -5 -6 -10 -14 -10
-7 0 -19 -7 -26 -15 -7 -9 -15 -13 -18 -11 -2 3 -19 -6 -37 -19 -17 -14 -36
-25 -41 -25 -5 0 -26 -11 -46 -25 -20 -14 -44 -25 -52 -25 -9 0 -16 -4 -16
-10 0 -5 -15 -10 -34 -10 -19 0 -38 -5 -41 -10 -5 -8 -11 -7 -21 1 -8 7 -66
12 -154 14 -77 1 -143 5 -147 9 -13 13 -150 6 -162 -8 -14 -17 -11 -85 4 -87
52 -7 215 -5 215 2 0 5 -6 9 -14 9 -7 0 -19 7 -26 15 -10 13 -10 19 5 35 19
21 55 27 55 10 0 -5 -4 -10 -8 -10 -5 0 -17 -7 -28 -15 -17 -14 -15 -14 14 0
25 12 32 13 32 2 0 -7 -5 -18 -12 -25 -9 -9 -9 -12 0 -12 7 0 12 -14 12 -33 0
-30 -3 -33 -32 -35 -48 -3 -78 -22 -78 -48 0 -20 -6 -23 -42 -27 -43 -3 -43
-4 8 -5 62 -2 80 -17 55 -44 -14 -14 -35 -19 -91 -22 -77 -4 -105 -17 -74 -34
18 -10 26 -12 40 -12 4 0 1 -7 -6 -15 -7 -9 -19 -14 -26 -11 -7 3 -18 -2 -24
-9 -7 -8 -16 -12 -21 -9 -5 3 -9 0 -9 -7 0 -7 -3 -10 -6 -6 -3 3 -27 -7 -53
-23 -27 -15 -58 -31 -69 -35 -22 -6 -31 -25 -13 -25 5 0 63 27 129 60 65 33
124 60 130 60 7 0 12 4 12 9 0 14 32 23 44 11 7 -7 2 -10 -15 -11 -13 0 -19
-3 -12 -5 7 -3 10 -13 7 -22 -5 -15 -4 -15 9 1 18 22 24 22 30 0 4 -17 5 -17
6 0 1 16 17 22 49 18 10 -2 19 26 10 30 -2 1 -52 5 -113 9 l-110 7 113 1 c61
1 112 6 112 11 0 4 -11 6 -25 3 -34 -6 -31 2 9 27 32 20 78 23 103 8 11 -7 29
10 20 19 -2 2 -36 6 -76 8 -39 1 -74 5 -77 8 -3 3 -2 17 2 32 6 25 9 26 80 26
l74 0 0 -29 c0 -17 5 -33 10 -36 6 -4 10 6 10 23 0 25 3 29 20 25 11 -3 20 -9
20 -14 0 -5 -8 -6 -17 -3 -17 5 -17 5 0 -6 9 -6 17 -16 17 -22 0 -7 -5 -6 -15
2 -10 9 -15 9 -15 1 0 -6 3 -12 8 -12 49 -8 72 -7 72 2 0 5 -8 9 -17 7 -12 -2
-19 4 -21 18 -2 16 3 23 22 26 17 4 23 1 19 -9 -3 -7 0 -13 6 -13 6 0 11 5 11
10 0 6 5 10 11 10 5 0 8 -3 6 -7 -3 -5 1 -14 9 -21 12 -11 14 -9 14 8 0 12 7
20 18 20 14 0 15 -2 2 -10 -13 -8 -12 -10 3 -10 11 0 17 -5 14 -12 -2 -8 -20
-12 -42 -12 -28 1 -34 -1 -22 -8 15 -8 78 -12 138 -9 22 1 26 5 24 31 -1 17 2
30 7 30 4 0 8 -13 8 -29 0 -33 31 -51 55 -31 9 8 15 8 20 0 3 -5 18 -10 33
-10 15 0 38 -1 51 -1 35 0 44 14 30 45 -10 20 -10 29 -1 34 7 5 8 13 2 22 -16
25 -12 90 5 90 23 0 18 27 -7 35 -49 16 -128 31 -128 24 0 -4 -17 -6 -37 -4
-21 1 -46 0 -57 -3 -19 -5 -19 -5 1 -13 19 -7 21 -16 22 -73 0 -48 -3 -66 -13
-66 -8 0 -11 10 -8 30 3 18 0 30 -7 30 -6 0 -11 -13 -11 -29 0 -16 -6 -31 -13
-34 -9 -3 -11 13 -9 72 3 63 7 79 25 93 39 30 341 185 377 193 41 9 50 19 50
62 0 18 5 42 10 55 6 13 21 96 33 184 l23 162 -56 6 c-30 3 -129 8 -220 11
-91 3 -182 7 -202 9 -27 3 -35 1 -31 -9z m165 -15 c11 0 17 -4 13 -9 -3 -6
-19 -8 -35 -6 -66 8 -117 8 -130 0 -13 -8 -13 -6 0 9 12 16 24 17 74 12 32 -3
68 -6 78 -6z m-625 -660 c44 0 44 0 41 -32 l-3 -33 -75 3 c-41 2 -76 5 -76 5
-1 1 1 17 3 35 5 32 8 34 36 28 16 -3 49 -6 74 -6z m187 -10 c23 -9 26 -14 22
-52 -3 -24 -5 -53 -5 -65 -1 -39 -21 -25 -23 15 l-1 37 -4 -37 c-3 -26 -9 -38
-20 -38 -12 0 -14 7 -9 38 3 20 6 54 6 75 0 41 -1 41 34 27z m86 -10 c0 -5 -7
-10 -15 -10 -8 0 -15 -9 -15 -21 0 -11 5 -17 10 -14 6 3 10 -1 10 -9 0 -9 -4
-16 -10 -16 -5 0 -10 -9 -10 -20 0 -11 7 -20 15 -20 8 0 15 -4 15 -10 0 -5
-11 -10 -25 -10 -24 0 -25 2 -25 70 0 68 1 70 25 70 14 0 25 -4 25 -10z m67
-2 c6 -7 7 -38 4 -68 -6 -51 -8 -55 -34 -58 l-28 -3 2 70 c2 66 4 71 24 71 13
0 27 -6 32 -12z m99 -54 c1 -61 -10 -84 -40 -84 -22 0 -23 3 -20 53 2 28 3 62
4 74 0 18 4 20 28 14 25 -7 27 -12 28 -57z m112 -14 c-2 -48 -7 -70 -15 -70
-9 0 -13 21 -13 70 0 57 3 70 16 70 13 0 15 -12 12 -70z m66 47 c6 -9 6 -20 2
-24 -5 -4 -11 -2 -13 5 -10 27 -23 9 -23 -33 0 -25 5 -45 10 -45 6 0 10 5 10
10 0 6 5 10 10 10 15 0 12 -26 -5 -40 -12 -10 -18 -10 -30 0 -19 16 -21 126
-2 133 18 8 29 3 41 -16z m40 -14 l-4 -28 11 28 c6 15 17 27 25 27 13 0 12 -4
-1 -29 -13 -26 -13 -34 0 -70 11 -33 12 -41 1 -41 -7 0 -18 15 -24 33 l-10 32
-1 -32 c-1 -18 -5 -33 -11 -33 -6 0 -10 30 -10 70 0 52 3 70 14 70 9 0 12 -9
10 -27z m-587 -19 c-3 -3 -12 -4 -19 -1 -8 3 -5 6 6 6 11 1 17 -2 13 -5z m425
-118 c10 -15 -3 -36 -23 -36 -11 0 -19 7 -20 18 -1 16 -2 16 -6 0 -5 -19 -23
-25 -23 -9 0 5 -2 16 -6 24 -4 11 4 14 33 13 21 0 41 -5 45 -10z m170 2 c18 2
31 -4 38 -17 14 -28 15 -28 -40 -28 -48 -1 -78 15 -66 36 3 5 -2 8 -11 6 -10
-2 -24 -4 -30 -4 -7 -1 -13 -5 -13 -11 0 -5 7 -7 16 -3 12 4 15 2 12 -8 -7
-22 -33 -16 -36 8 -4 25 23 34 73 25 17 -3 42 -4 57 -4z"/>
<path d="M1940 1449 c0 -11 5 -17 10 -14 6 3 10 13 10 21 0 8 -4 14 -10 14 -5
0 -10 -9 -10 -21z"/>
<path d="M2077 1426 c-7 -47 -4 -66 9 -54 3 3 4 28 2 54 l-3 49 -8 -49z"/>
<path d="M2167 1449 c4 -13 8 -18 11 -10 2 7 -1 18 -6 23 -8 8 -9 4 -5 -13z"/>
<path d="M2172 1390 c0 -14 2 -19 5 -12 2 6 2 18 0 25 -3 6 -5 1 -5 -13z"/>
<path d="M2380 1290 c0 -5 7 -10 16 -10 8 0 12 5 9 10 -3 6 -10 10 -16 10 -5
0 -9 -4 -9 -10z"/>
<path d="M2430 1290 c0 -5 5 -10 11 -10 5 0 7 5 4 10 -3 6 -8 10 -11 10 -2 0
-4 -4 -4 -10z"/>
<path d="M2658 2183 c7 -3 16 -2 19 1 4 3 -2 6 -13 5 -11 0 -14 -3 -6 -6z"/>
<path d="M1542 2130 c0 -14 2 -19 5 -12 2 6 2 18 0 25 -3 6 -5 1 -5 -13z"/>
<path d="M1742 2130 c0 -14 2 -19 5 -12 2 6 2 18 0 25 -3 6 -5 1 -5 -13z"/>
<path d="M2425 2130 c3 -5 10 -10 16 -10 5 0 9 5 9 10 0 6 -7 10 -16 10 -8 0
-12 -4 -9 -10z"/>
<path d="M130 2105 c0 -18 65 -21 76 -4 5 9 -4 10 -31 5 -25 -5 -35 -4 -30 3
3 6 1 11 -4 11 -6 0 -11 -7 -11 -15z"/>
<path d="M15 2090 c-3 -5 -1 -10 4 -10 6 0 11 5 11 10 0 6 -2 10 -4 10 -3 0
-8 -4 -11 -10z"/>
<path d="M75 2090 c3 -5 11 -10 16 -10 6 0 7 5 4 10 -3 6 -11 10 -16 10 -6 0
-7 -4 -4 -10z"/>
<path d="M2003 2093 c9 -2 23 -2 30 0 6 3 -1 5 -18 5 -16 0 -22 -2 -12 -5z"/>
<path d="M1645 2080 c-3 -5 -1 -10 4 -10 6 0 11 5 11 10 0 6 -2 10 -4 10 -3 0
-8 -4 -11 -10z"/>
<path d="M1675 2081 c5 -10 73 -13 78 -4 3 5 -15 9 -39 9 -24 1 -42 -2 -39 -5z"/>
<path d="M1118 2043 c7 -3 16 -2 19 1 4 3 -2 6 -13 5 -11 0 -14 -3 -6 -6z"/>
<path d="M1830 2029 c0 -11 4 -18 10 -14 5 3 7 12 3 20 -7 21 -13 19 -13 -6z"/>
<path d="M2351 2034 c0 -11 3 -14 6 -6 3 7 2 16 -1 19 -3 4 -6 -2 -5 -13z"/>
<path d="M2540 2040 c0 -5 5 -10 11 -10 5 0 7 5 4 10 -3 6 -8 10 -11 10 -2 0
-4 -4 -4 -10z"/>
<path d="M793 2033 c15 -2 39 -2 55 0 15 2 2 4 -28 4 -30 0 -43 -2 -27 -4z"/>
<path d="M2578 2033 c7 -3 16 -2 19 1 4 3 -2 6 -13 5 -11 0 -14 -3 -6 -6z"/>
<path d="M896 2015 c-3 -8 -1 -15 3 -15 5 0 11 7 15 15 3 8 1 15 -3 15 -5 0
-11 -7 -15 -15z"/>
<path d="M630 2014 c36 -7 139 -10 128 -2 -7 4 -42 7 -78 7 -36 -1 -58 -3 -50
-5z"/>
<path d="M1327 2009 c7 -7 15 -10 18 -7 3 3 -2 9 -12 12 -14 6 -15 5 -6 -5z"/>
<path d="M23 2003 c9 -2 25 -2 35 0 9 3 1 5 -18 5 -19 0 -27 -2 -17 -5z"/>
<path d="M808 2003 c12 -2 30 -2 40 0 9 3 -1 5 -23 4 -22 0 -30 -2 -17 -4z"/>
<path d="M2072 1980 c0 -19 2 -27 5 -17 2 9 2 25 0 35 -3 9 -5 1 -5 -18z"/>
<path d="M1041 1984 c0 -11 3 -14 6 -6 3 7 2 16 -1 19 -3 4 -6 -2 -5 -13z"/>
<path d="M1820 1985 c-7 -9 -8 -15 -2 -15 5 0 12 7 16 15 3 8 4 15 2 15 -2 0
-9 -7 -16 -15z"/>
<path d="M1318 1983 c6 -2 18 -2 25 0 6 3 1 5 -13 5 -14 0 -19 -2 -12 -5z"/>
<path d="M1383 1983 c9 -2 23 -2 30 0 6 3 -1 5 -18 5 -16 0 -22 -2 -12 -5z"/>
<path d="M1648 1983 c7 -3 16 -2 19 1 4 3 -2 6 -13 5 -11 0 -14 -3 -6 -6z"/>
<path d="M1688 1983 c6 -2 18 -2 25 0 6 3 1 5 -13 5 -14 0 -19 -2 -12 -5z"/>
<path d="M1765 1980 c3 -5 14 -10 23 -10 15 0 15 2 2 10 -20 13 -33 13 -25 0z"/>
<path d="M2591 1974 c0 -11 3 -14 6 -6 3 7 2 16 -1 19 -3 4 -6 -2 -5 -13z"/>
<path d="M218 1973 c7 -3 16 -2 19 1 4 3 -2 6 -13 5 -11 0 -14 -3 -6 -6z"/>
<path d="M1729 1942 c-3 -20 -2 -29 4 -23 5 5 7 19 5 32 -3 20 -5 19 -9 -9z"/>
<path d="M2028 1963 c7 -3 16 -2 19 1 4 3 -2 6 -13 5 -11 0 -14 -3 -6 -6z"/>
<path d="M2458 1943 c7 -3 16 -2 19 1 4 3 -2 6 -13 5 -11 0 -14 -3 -6 -6z"/>
<path d="M2533 1943 c9 -2 23 -2 30 0 6 3 -1 5 -18 5 -16 0 -22 -2 -12 -5z"/>
<path d="M440 1905 c0 -8 4 -15 10 -15 5 0 7 7 4 15 -4 8 -8 15 -10 15 -2 0
-4 -7 -4 -15z"/>
<path d="M1918 1903 c-5 -20 -2 -23 20 -22 16 1 20 3 10 6 -9 2 -18 12 -20 21
-3 13 -5 12 -10 -5z"/>
<path d="M1987 1879 c7 -7 15 -10 18 -7 3 3 -2 9 -12 12 -14 6 -15 5 -6 -5z"/>
<path d="M381 1851 c-31 -29 -40 -51 -20 -51 5 0 8 4 5 9 -3 5 10 23 29 40 20
17 32 31 26 31 -5 0 -23 -13 -40 -29z"/>
<path d="M2626 1867 c3 -10 9 -15 12 -12 3 3 0 11 -7 18 -10 9 -11 8 -5 -6z"/>
<path d="M1303 1863 c9 -2 23 -2 30 0 6 3 -1 5 -18 5 -16 0 -22 -2 -12 -5z"/>
<path d="M1865 1860 c-4 -6 -11 -7 -17 -4 -7 4 -8 2 -4 -5 6 -8 12 -9 20 -2 7
6 16 8 19 4 4 -3 7 -1 7 5 0 15 -17 16 -25 2z"/>
<path d="M2423 1853 c9 -2 23 -2 30 0 6 3 -1 5 -18 5 -16 0 -22 -2 -12 -5z"/>
<path d="M1413 1828 c-2 -16 1 -17 13 -8 17 15 17 17 1 23 -8 3 -14 -3 -14
-15z"/>
<path d="M898 1823 c6 -2 18 -2 25 0 6 3 1 5 -13 5 -14 0 -19 -2 -12 -5z"/>
<path d="M1040 1814 c-39 -14 -34 -17 24 -14 23 1 42 -4 47 -12 7 -10 9 -9 9
5 0 12 8 17 27 17 40 0 24 8 -27 13 -25 2 -61 -2 -80 -9z"/>
<path d="M900 1810 c-40 -6 -36 -7 30 -8 50 0 68 2 55 8 -22 10 -23 10 -85 0z"/>
<path d="M2220 1804 c0 -8 5 -12 10 -9 6 4 8 11 5 16 -9 14 -15 11 -15 -7z"/>
<path d="M1263 1750 c0 -30 2 -43 4 -27 2 15 2 39 0 55 -2 15 -4 2 -4 -28z"/>
<path d="M1422 1760 c0 -14 2 -19 5 -12 2 6 2 18 0 25 -3 6 -5 1 -5 -13z"/>
<path d="M1863 1765 c0 -8 4 -15 9 -15 4 0 8 4 8 9 0 6 -4 12 -8 15 -5 3 -9
-1 -9 -9z"/>
<path d="M2513 1763 c9 -2 23 -2 30 0 6 3 -1 5 -18 5 -16 0 -22 -2 -12 -5z"/>
<path d="M2216 1751 c-4 -5 -2 -19 2 -31 7 -20 9 -20 22 -5 11 14 11 16 -1 13
-9 -2 -13 4 -11 15 3 18 -3 23 -12 8z"/>
<path d="M1292 1700 c0 -14 2 -19 5 -12 2 6 2 18 0 25 -3 6 -5 1 -5 -13z"/>
<path d="M460 1684 c0 -6 5 -15 12 -22 9 -9 9 -12 0 -12 -7 0 -12 -10 -11 -22
l0 -23 11 23 c6 12 18 22 27 23 14 0 14 1 1 6 -8 3 -21 12 -27 21 -7 9 -13 11
-13 6z"/>
<path d="M2649 1668 c-1 -7 -1 -16 0 -20 0 -5 -29 -8 -66 -8 -75 0 -79 -5 -13
-14 105 -14 100 -16 97 21 -2 31 -16 47 -18 21z"/>
<path d="M787 1657 c-3 -7 5 -12 19 -12 29 0 29 1 5 14 -14 8 -20 7 -24 -2z"/>
<path d="M2073 1663 c9 -2 23 -2 30 0 6 3 -1 5 -18 5 -16 0 -22 -2 -12 -5z"/>
<path d="M1073 1633 c-4 -10 -11 -21 -17 -25 -17 -11 97 -9 114 2 13 8 12 10
-5 11 -11 1 -24 3 -30 4 -5 2 -16 3 -23 4 -7 0 -10 6 -7 11 3 6 -1 10 -10 10
-8 0 -19 -8 -22 -17z m27 -14 c0 -5 -4 -9 -10 -9 -5 0 -10 7 -10 16 0 8 5 12
10 9 6 -3 10 -10 10 -16z"/>
<path d="M578 1623 c7 -3 16 -2 19 1 4 3 -2 6 -13 5 -11 0 -14 -3 -6 -6z"/>
<path d="M920 1621 c-24 -7 -24 -7 9 -14 37 -8 47 -4 36 12 -7 12 -9 12 -45 2z"/>
<path d="M993 1613 c9 -2 25 -2 35 0 9 3 1 5 -18 5 -19 0 -27 -2 -17 -5z"/>
<path d="M468 1593 c-2 -5 -1 -26 3 -48 l6 -40 2 48 c1 44 -3 57 -11 40z"/>
<path d="M2621 1583 c-1 -21 -6 -23 -51 -23 -27 0 -50 -4 -50 -8 0 -5 24 -7
54 -4 59 5 84 -12 43 -27 -35 -13 -40 -26 -11 -27 13 -1 32 -5 42 -9 15 -7 14
-8 -5 -14 l-22 -6 24 -12 25 -11 0 79 c0 49 -4 79 -11 79 -6 0 -8 -9 -4 -20 4
-14 2 -20 -9 -20 -8 0 -17 10 -19 23 l-4 22 -2 -22z"/>
<path d="M712 1570 c0 -14 2 -19 5 -12 2 6 2 18 0 25 -3 6 -5 1 -5 -13z"/>
<path d="M813 1555 c0 -22 2 -30 4 -17 2 12 2 30 0 40 -3 9 -5 -1 -4 -23z"/>
<path d="M967 1570 c3 -11 8 -20 12 -20 3 0 12 9 19 20 11 18 10 20 -12 20
-19 0 -23 -4 -19 -20z"/>
<path d="M2555 1491 c3 -6 -1 -11 -9 -11 -9 0 -16 -5 -16 -11 0 -5 4 -7 10 -4
12 7 62 -24 55 -35 -7 -12 45 -51 58 -43 6 4 7 -4 2 -23 -8 -31 -8 -36 0 -156
3 -43 2 -78 -2 -78 -4 0 -7 -82 -7 -183 1 -127 -2 -184 -10 -189 -8 -5 -8 -8
0 -8 14 0 14 -102 0 -112 -7 -5 -5 -8 4 -8 12 0 15 -15 14 -82 -1 -46 -3 -83
-4 -83 -1 0 -3 -8 -5 -18 -2 -11 -5 -21 -7 -23 -3 -2 -67 -6 -144 -8 -76 -3
-139 -5 -139 -6 0 -3 -80 -9 -115 -9 -22 -1 -30 -4 -22 -9 13 -9 32 -8 308 3
l150 7 1 496 c1 477 -1 532 -28 532 -6 0 -7 -4 -4 -10 16 -26 -13 -6 -35 24
-23 32 -71 72 -55 47z"/>
<path d="M1181 1474 c0 -11 3 -14 6 -6 3 7 2 16 -1 19 -3 4 -6 -2 -5 -13z"/>
<path d="M2240 1440 c0 -11 5 -20 10 -20 6 0 10 9 10 20 0 11 -4 20 -10 20 -5
0 -10 -9 -10 -20z"/>
<path d="M640 1410 c0 -11 -6 -20 -13 -20 -7 0 -18 -10 -26 -21 l-13 -22 30
22 c17 11 36 21 44 21 11 0 11 2 -1 9 -7 5 -10 14 -7 20 4 6 2 11 -3 11 -6 0
-11 -9 -11 -20z"/>
<path d="M487 1413 c-4 -3 -7 -13 -7 -22 1 -13 3 -13 11 2 11 19 8 33 -4 20z"/>
<path d="M914 1405 c-16 -12 -17 -14 -3 -15 9 0 19 7 23 15 7 19 5 19 -20 0z"/>
<path d="M1882 1400 c0 -14 2 -19 5 -12 2 6 2 18 0 25 -3 6 -5 1 -5 -13z"/>
<path d="M953 1403 c-7 -3 -13 -12 -13 -20 0 -9 -6 -13 -15 -9 -10 3 -15 -1
-15 -14 0 -10 -8 -21 -17 -23 -14 -4 -12 -5 5 -6 13 -1 22 5 22 14 0 18 17 20
23 3 2 -7 3 -5 2 4 -2 10 1 21 6 24 5 3 9 -15 9 -39 0 -39 -2 -44 -22 -43 -13
1 -27 7 -31 14 -6 9 -13 9 -28 2 -24 -13 -14 -34 12 -27 19 5 27 -9 9 -15 -8
-2 120 -2 177 1 6 1 9 11 6 24 -4 21 -4 22 11 3 13 -16 16 -17 16 -4 0 9 -6
18 -12 20 -21 8 -37 -2 -31 -20 4 -15 3 -15 -6 -2 -9 12 -14 13 -31 3 -23 -15
-30 -16 -30 -4 0 5 9 11 20 14 14 4 20 14 20 34 0 22 2 25 10 13 8 -12 10 -10
10 8 0 36 -24 21 -28 -16 -2 -22 -8 -32 -20 -32 -11 0 -13 3 -6 8 14 8 17 92
3 92 -5 0 -9 -8 -10 -17 0 -15 -2 -15 -9 2 -7 16 -9 14 -9 -15 -1 -28 2 -32
10 -20 9 12 10 12 5 -3 -3 -10 -6 -25 -6 -33 0 -8 -4 -14 -9 -14 -6 0 -11 22
-13 48 -2 34 -7 47 -15 45z m-53 -103 c0 -5 -5 -10 -11 -10 -5 0 -7 5 -4 10 3
6 8 10 11 10 2 0 4 -4 4 -10z"/>
<path d="M1411 1394 c0 -11 3 -14 6 -6 3 7 2 16 -1 19 -3 4 -6 -2 -5 -13z"/>
<path d="M1571 1384 c0 -11 3 -14 6 -6 3 7 2 16 -1 19 -3 4 -6 -2 -5 -13z"/>
<path d="M1334 1358 c1 -7 5 -18 9 -25 4 -6 3 -14 -3 -18 -14 -8 -13 -35 1
-35 6 0 8 8 5 18 -5 14 -4 14 9 -2 14 -19 15 -18 15 13 0 18 -6 39 -14 47 -18
17 -25 18 -22 2z"/>
<path d="M1383 1356 c4 -10 7 -22 7 -27 0 -5 4 -9 8 -9 14 0 10 25 -7 40 -13
13 -14 12 -8 -4z"/>
<path d="M1598 1363 c7 -3 16 -2 19 1 4 3 -2 6 -13 5 -11 0 -14 -3 -6 -6z"/>
<path d="M801 1319 c-11 -26 -11 -33 0 -39 7 -5 16 -7 20 -4 10 6 18 44 9 44
-5 0 -10 7 -12 15 -2 10 -8 4 -17 -16z"/>
<path d="M450 1305 c7 -8 17 -15 22 -15 5 0 3 7 -6 15 -8 8 -18 15 -22 15 -3
0 -1 -7 6 -15z"/>
<path d="M1923 1303 c-23 -9 -14 -20 12 -15 14 2 22 8 19 13 -6 10 -12 10 -31
2z"/>
<path d="M2050 1300 c0 -5 5 -10 10 -10 6 0 10 5 10 10 0 6 -4 10 -10 10 -5 0
-10 -4 -10 -10z"/>
<path d="M1650 1290 c0 -5 5 -10 11 -10 5 0 7 5 4 10 -3 6 -8 10 -11 10 -2 0
-4 -4 -4 -10z"/>
<path d="M745 1280 c3 -5 11 -10 16 -10 6 0 7 5 4 10 -3 6 -11 10 -16 10 -6 0
-7 -4 -4 -10z"/>
<path d="M1355 1240 c3 -5 8 -10 11 -10 2 0 4 5 4 10 0 6 -5 10 -11 10 -5 0
-7 -4 -4 -10z"/>
<path d="M2035 1240 c3 -5 8 -10 11 -10 2 0 4 5 4 10 0 6 -5 10 -11 10 -5 0
-7 -4 -4 -10z"/>
<path d="M1917 1226 c-6 -14 -10 -16 -21 -7 -10 9 -15 8 -20 -4 -4 -12 4 -15
42 -15 26 -1 92 -3 147 -6 405 -22 409 -22 108 -17 -212 3 -303 2 -303 -6 0
-11 39 -24 72 -25 10 -1 18 -4 18 -8 0 -5 0 -12 0 -18 0 -5 -7 -10 -15 -10 -8
0 -15 6 -15 13 0 8 -4 7 -10 -3 -5 -8 -10 -11 -10 -7 0 5 -10 1 -21 -7 -16
-11 -24 -12 -34 -3 -7 7 -10 18 -8 24 9 24 -21 13 -44 -14 -15 -19 -22 -23
-23 -13 0 11 -13 15 -50 16 -27 1 -47 -2 -44 -7 3 -5 -6 -9 -20 -9 -14 0 -27
-3 -29 -7 -3 -5 11 -8 31 -8 107 -1 630 -16 707 -22 222 -14 29 -17 -285 -4
-112 5 -196 5 -198 0 -2 -5 -12 -4 -22 1 -11 6 -69 10 -130 9 -109 -1 -110 -1
-110 -25 0 -13 5 -24 11 -24 5 0 8 4 5 9 -7 11 22 23 35 15 5 -3 9 0 9 5 0 14
35 14 60 1 10 -6 21 -6 24 -2 3 5 26 6 51 2 25 -4 69 -5 97 -2 36 3 53 1 59
-9 6 -9 9 -10 9 -2 0 9 37 11 148 7 333 -11 331 -11 336 2 7 19 -15 32 -49 28
-27 -4 -28 -3 -12 10 23 18 21 31 -9 53 l-25 19 38 -3 c45 -4 74 10 57 27 -7
7 -49 12 -103 12 -50 1 -91 4 -91 7 0 3 -68 7 -152 8 -102 1 -154 6 -158 14
-6 8 -9 8 -14 0 -11 -16 -24 -13 -28 7 -3 16 -4 16 -11 -2z m33 -60 c0 -2 -7
-6 -15 -10 -8 -3 -15 -1 -15 4 0 6 7 10 15 10 8 0 15 -2 15 -4z m35 -5 c-3 -5
-1 -12 5 -16 15 -9 12 -32 -3 -32 -8 0 -14 12 -14 29 0 15 4 28 9 28 5 0 7 -4
3 -9z m170 -7 c17 -8 41 -16 55 -17 14 -2 26 -10 28 -19 2 -13 -4 -16 -29 -16
-18 1 -35 -4 -36 -9 -7 -19 -63 9 -63 30 0 12 6 17 18 15 9 -2 16 -11 16 -21
-1 -9 4 -17 11 -17 24 0 10 35 -20 52 -38 22 -21 23 20 2z m58 -1 c-7 -2 -19
-2 -25 0 -7 3 -2 5 12 5 14 0 19 -2 13 -5z m-188 -13 c-3 -5 -1 -10 4 -10 6 0
11 -4 11 -10 0 -19 -26 -10 -27 10 -1 11 3 20 8 20 6 0 7 -4 4 -10z m75 -17
c0 -16 -4 -21 -15 -17 -8 4 -15 11 -15 18 0 7 -3 6 -9 -2 -6 -11 -9 -9 -14 7
-4 17 -1 20 24 18 23 -2 29 -7 29 -24z m205 8 c-3 -5 -1 -12 5 -16 5 -3 10 1
10 9 0 9 8 16 18 15 9 0 12 -3 5 -5 -7 -3 -9 -12 -6 -19 4 -11 -3 -14 -26 -12
-17 1 -31 8 -31 15 0 6 -5 12 -11 12 -5 0 -8 -4 -4 -9 3 -5 1 -12 -5 -16 -5
-3 -10 3 -10 14 0 17 6 21 31 21 16 0 28 -4 24 -9z m75 -11 c0 -11 -7 -20 -15
-20 -15 0 -21 21 -8 33 12 13 23 7 23 -13z m34 -5 c3 -8 -2 -19 -13 -24 -16
-9 -17 -7 -13 14 5 28 17 33 26 10z m-584 -13 c0 -5 -7 -9 -15 -9 -8 0 -12 4
-9 9 3 4 9 8 15 8 5 0 9 -4 9 -8z m520 -18 c0 -2 -30 -3 -67 -3 -47 1 -59 3
-38 8 29 6 105 3 105 -5z"/>
<path d="M2180 1120 c0 -5 5 -10 10 -10 6 0 10 5 10 10 0 6 -4 10 -10 10 -5 0
-10 -4 -10 -10z"/>
<path d="M2215 1120 c-3 -5 -1 -10 4 -10 6 0 11 5 11 10 0 6 -2 10 -4 10 -3 0
-8 -4 -11 -10z"/>
<path d="M1332 1208 c-27 -14 -37 -46 -28 -99 4 -26 -1 -82 -15 -152 -12 -62
-22 -139 -22 -171 0 -42 -3 -53 -8 -38 -14 36 -17 25 -5 -18 8 -34 12 -37 18
-21 4 11 7 37 6 58 0 21 8 83 17 138 10 55 20 141 22 192 4 87 5 91 29 97 13
4 24 11 24 16 0 12 -9 12 -38 -2z"/>
<path d="M713 1140 c-16 -6 -21 -15 -17 -27 5 -15 4 -15 -5 -3 -8 12 -15 10
-43 -15 -18 -17 -34 -33 -36 -38 -2 -4 -10 -13 -17 -21 -15 -14 -17 -106 -3
-106 5 0 6 5 3 10 -4 6 -1 18 6 27 7 8 14 23 14 32 3 43 6 51 16 51 6 0 8 -7
5 -15 -4 -11 3 -19 21 -26 14 -5 28 -7 31 -4 3 3 0 5 -7 5 -7 0 -10 4 -7 9 4
5 -3 7 -14 4 -25 -7 -25 0 -2 23 16 16 16 17 0 11 -12 -4 -15 -2 -11 8 6 18
37 4 56 -25 16 -27 24 -25 29 5 3 14 1 25 -3 25 -5 0 -9 -4 -9 -10 0 -5 -5
-10 -11 -10 -6 0 -8 7 -5 16 3 8 2 12 -4 9 -6 -3 -10 -1 -10 4 0 6 7 11 15 11
8 0 15 7 15 16 0 8 4 13 9 10 5 -3 11 3 14 14 6 22 3 23 -30 10z"/>
<path d="M1361 1103 c0 -26 4 -57 9 -68 6 -14 9 -1 7 43 -2 74 -17 97 -16 25z"/>
<path d="M1867 1143 c-13 -12 -7 -33 8 -33 8 0 15 9 15 20 0 20 -11 26 -23 13z"/>
<path d="M583 1123 c8 -8 24 -13 37 -11 17 2 15 5 -15 14 -32 10 -35 10 -22
-3z"/>
<path d="M1125 1129 c-4 -6 -17 -14 -29 -19 -20 -8 -20 -9 -1 -9 11 -1 26 8
33 19 7 11 10 20 8 20 -3 0 -8 -5 -11 -11z"/>
<path d="M3 1113 c4 -3 92 -8 195 -9 103 -1 192 -3 197 -4 6 -2 28 -1 50 0 26
2 9 6 -45 11 -109 9 -405 11 -397 2z"/>
<path d="M890 1110 c0 -6 7 -10 15 -10 8 0 15 -4 15 -10 0 -5 5 -10 10 -10 19
0 10 17 -15 28 -15 7 -25 8 -25 2z"/>
<path d="M956 1105 c10 -8 25 -15 33 -15 11 0 9 4 -5 15 -10 8 -25 15 -33 15
-11 0 -9 -4 5 -15z"/>
<path d="M1035 1110 c-3 -5 1 -10 9 -10 8 0 18 5 21 10 3 6 -1 10 -9 10 -8 0
-18 -4 -21 -10z"/>
<path d="M761 1068 c9 -7 18 -20 22 -28 4 -12 6 -12 6 2 1 10 -9 22 -21 28
-20 9 -21 9 -7 -2z"/>
<path d="M805 1060 c4 -6 11 -8 16 -5 5 4 9 -1 9 -9 0 -9 -5 -16 -11 -16 -5 0
-7 -5 -3 -11 5 -8 10 -6 16 5 12 22 3 46 -17 46 -9 0 -13 -5 -10 -10z"/>
<path d="M880 1060 c0 -6 7 -10 15 -10 8 0 15 2 15 4 0 2 -7 6 -15 10 -8 3
-15 1 -15 -4z"/>
<path d="M862 1035 c0 -16 2 -22 5 -12 2 9 2 23 0 30 -3 6 -5 -1 -5 -18z"/>
<path d="M751 1034 c0 -11 3 -14 6 -6 3 7 2 16 -1 19 -3 4 -6 -2 -5 -13z"/>
<path d="M1331 1008 c-1 -29 4 -48 12 -51 9 -3 9 -9 -1 -26 -15 -27 -1 -28 18
-1 10 14 16 16 22 7 5 -7 8 0 8 18 0 19 -9 37 -23 50 -13 11 -26 27 -30 35 -3
8 -6 -6 -6 -32z"/>
<path d="M1560 1033 c0 -12 8 -18 25 -19 27 -2 55 -20 55 -36 0 -5 -4 -6 -10
-3 -6 4 -11 -7 -11 -24 -1 -17 -2 -36 -3 -43 -1 -6 4 -13 9 -15 6 -2 10 12 10
29 l0 33 77 0 c43 0 80 5 82 10 2 6 -19 9 -55 7 -53 -3 -62 -1 -96 27 -21 17
-46 31 -56 31 -10 0 -15 5 -12 10 3 6 1 10 -4 10 -6 0 -11 -8 -11 -17z"/>
<path d="M917 1025 c-4 -8 -2 -17 3 -20 6 -4 10 3 10 14 0 25 -6 27 -13 6z"/>
<path d="M1660 1030 c0 -5 5 -10 11 -10 5 0 7 5 4 10 -3 6 -8 10 -11 10 -2 0
-4 -4 -4 -10z"/>
<path d="M1700 1020 c12 -8 12 -10 -5 -11 -20 0 -20 0 0 -8 11 -5 24 -6 28 -4
10 6 -12 33 -27 33 -6 0 -4 -5 4 -10z"/>
<path d="M775 1010 c-4 -6 -15 -8 -26 -5 -11 4 -19 2 -19 -4 0 -6 14 -11 30
-11 20 0 30 5 30 15 0 17 -6 19 -15 5z"/>
<path d="M1800 1006 c0 -8 4 -17 9 -20 5 -4 7 3 4 14 -6 23 -13 26 -13 6z"/>
<path d="M888 993 c7 -3 16 -2 19 1 4 3 -2 6 -13 5 -11 0 -14 -3 -6 -6z"/>
<path d="M1479 994 c-1 -5 0 -26 1 -48 1 -21 -3 -42 -10 -46 -6 -4 8 -12 34
-20 25 -7 46 -17 46 -22 0 -5 5 -6 10 -3 6 3 10 10 10 14 0 8 -51 34 -60 31
-8 -3 -17 34 -12 53 3 10 11 16 18 13 8 -3 14 -1 14 4 0 5 7 7 15 4 8 -4 12
-10 9 -15 -3 -5 0 -8 6 -7 13 3 18 -14 23 -72 2 -29 7 -35 27 -37 25 -3 25 -3
3 7 -13 5 -23 12 -23 15 0 4 5 3 10 0 6 -3 10 1 10 9 0 9 -4 16 -9 16 -5 0 -7
18 -4 39 6 42 9 39 -72 57 -5 1 -18 5 -27 9 -10 4 -18 3 -19 -1z"/>
<path d="M670 981 c0 -6 4 -13 10 -16 6 -3 7 1 4 9 -7 18 -14 21 -14 7z"/>
<path d="M1130 977 c0 -10 8 -17 18 -17 9 0 13 4 7 8 -5 4 -13 11 -17 16 -5 5
-8 2 -8 -7z"/>
<path d="M1860 980 c0 -5 5 -10 10 -10 6 0 10 5 10 10 0 6 -4 10 -10 10 -5 0
-10 -4 -10 -10z"/>
<path d="M1895 980 c3 -5 8 -10 11 -10 2 0 4 5 4 10 0 6 -5 10 -11 10 -5 0 -7
-4 -4 -10z"/>
<path d="M1055 958 c4 -21 3 -22 -9 -5 -15 19 -41 24 -30 5 7 -11 8 -27 5 -72
-1 -11 -13 -14 -46 -12 -41 2 -43 1 -24 -12 11 -8 31 -12 44 -9 14 2 22 0 19
-4 -3 -5 1 -9 9 -9 17 0 29 24 19 35 -12 11 -9 55 4 55 7 0 10 -11 7 -27 l-4
-28 15 25 c8 14 12 28 10 32 -3 4 2 5 11 2 11 -5 13 -10 5 -19 -8 -9 -8 -15 0
-20 6 -4 9 -3 8 2 -2 4 2 9 7 10 6 2 10 -5 10 -14 0 -23 21 -28 29 -6 4 9 4
14 0 10 -4 -4 -12 3 -18 16 -6 12 -21 26 -34 32 -12 5 -22 15 -22 22 0 7 -4
13 -9 13 -6 0 -8 -10 -6 -22z"/>
<path d="M1085 970 c-4 -6 3 -10 14 -10 25 0 27 6 6 13 -8 4 -17 2 -20 -3z"/>
<path d="M663 945 c0 -8 4 -12 8 -9 4 2 10 -2 12 -8 4 -8 6 -9 6 -2 1 6 -5 17
-12 23 -10 8 -14 7 -14 -4z"/>
<path d="M2478 953 c7 -3 16 -2 19 1 4 3 -2 6 -13 5 -11 0 -14 -3 -6 -6z"/>
<path d="M2538 953 c7 -3 16 -2 19 1 4 3 -2 6 -13 5 -11 0 -14 -3 -6 -6z"/>
<path d="M603 935 c0 -8 6 -15 13 -15 8 0 11 6 8 15 -4 8 -9 15 -13 15 -4 0
-8 -7 -8 -15z"/>
<path d="M749 943 c-1 -5 -1 -11 0 -15 0 -5 -3 -8 -9 -8 -15 0 -12 -19 4 -36
19 -18 32 -18 17 0 -7 8 -9 25 -5 40 3 14 3 26 0 26 -3 0 -7 -3 -7 -7z"/>
<path d="M772 927 c-7 -8 -6 -17 3 -30 11 -16 13 -16 19 -2 3 9 11 13 17 9 8
-5 8 -9 -1 -14 -7 -4 -1 -7 15 -7 18 0 23 3 17 9 -6 6 -8 16 -6 23 3 8 -5 10
-27 7 -22 -3 -30 -1 -25 7 10 15 1 14 -12 -2z"/>
<path d="M1200 930 c0 -5 5 -10 11 -10 5 0 7 5 4 10 -3 6 -8 10 -11 10 -2 0
-4 -4 -4 -10z"/>
<path d="M1776 927 c3 -10 9 -15 12 -12 3 3 0 11 -7 18 -10 9 -11 8 -5 -6z"/>
<path d="M566 905 c-3 -9 -2 -14 3 -11 5 3 12 -2 16 -11 3 -10 1 -19 -4 -21
-6 -2 -11 -13 -11 -25 0 -21 1 -21 13 3 8 14 19 24 26 22 7 -1 10 2 7 7 -4 5
0 12 6 15 7 4 3 4 -8 2 -14 -2 -21 2 -20 12 1 21 -20 26 -28 7z"/>
<path d="M700 903 c-8 -4 -23 -15 -32 -25 -9 -11 -20 -20 -25 -20 -24 -2 -51
-22 -46 -34 3 -8 -1 -14 -11 -14 -36 0 -10 -37 35 -50 50 -15 59 -13 58 13 0
12 -3 16 -6 10 -7 -18 -28 -16 -43 2 -10 13 -15 13 -21 3 -15 -25 -19 0 -4 28
8 16 15 25 15 19 0 -5 4 -4 8 3 5 7 25 15 46 17 23 3 35 1 31 -5 -3 -5 -1 -10
4 -10 6 0 11 7 11 16 0 11 -6 15 -20 11 -27 -7 -25 7 3 26 23 17 22 19 -3 10z"/>
<path d="M1320 889 c0 -4 5 -11 10 -14 14 -9 1 -27 -13 -19 -7 4 -5 -1 4 -11
14 -14 15 -24 7 -53 -7 -24 -7 -37 0 -40 14 -4 -21 -72 -54 -105 -15 -15 -25
-30 -21 -33 8 -9 47 20 47 35 0 8 3 11 7 8 9 -10 -16 -56 -51 -94 -16 -18 -25
-33 -20 -33 17 0 62 53 77 90 15 37 31 115 25 126 -1 3 10 12 25 20 15 8 25
20 21 26 -4 7 -9 6 -15 -3 -5 -8 -9 -9 -9 -4 0 6 -5 3 -11 -5 -8 -11 -9 -7 -4
17 4 18 2 34 -5 38 -5 3 -8 11 -4 16 3 6 12 5 22 -3 12 -10 14 -10 8 0 -4 7
-1 12 9 12 10 0 15 7 13 18 -2 12 -13 17 -36 18 -17 1 -32 -3 -32 -7z m54 -6
c-5 -5 -12 -12 -15 -16 -3 -5 -9 -2 -12 7 -5 12 0 16 15 16 12 0 17 -3 12 -7z"/>
<path d="M1790 883 c35 -2 70 -9 76 -14 8 -7 14 -7 18 0 4 6 31 8 64 5 33 -3
52 -1 45 3 -7 5 -70 9 -140 9 -71 0 -99 -1 -63 -3z"/>
<path d="M745 850 c-16 -7 -17 -9 -3 -9 9 -1 20 4 23 9 7 11 7 11 -20 0z"/>
<path d="M820 849 c0 -5 5 -7 12 -3 8 5 9 2 5 -10 -6 -14 -4 -15 15 -5 17 9
23 9 26 0 3 -9 8 -9 20 1 13 11 15 10 9 -5 -4 -10 -3 -16 2 -12 5 3 12 1 15
-4 7 -11 -22 -23 -36 -14 -7 4 -8 1 -3 -7 6 -10 4 -12 -8 -7 -12 5 -15 0 -12
-21 2 -15 4 -30 4 -34 1 -5 11 -8 24 -7 l22 0 -22 9 c-13 5 -23 12 -23 15 0
10 43 -6 61 -22 14 -11 18 -12 21 -1 4 11 8 10 21 -1 20 -16 21 -8 3 42 -10
31 -14 35 -20 21 -6 -16 -8 -16 -16 -4 -6 10 -4 23 6 38 19 29 9 43 -12 16
-13 -16 -15 -17 -10 -2 5 15 0 17 -35 15 -22 -2 -42 0 -45 5 -7 12 -24 10 -24
-3z m127 -87 c9 2 18 -3 21 -11 3 -8 0 -11 -7 -7 -6 4 -11 2 -11 -5 0 -8 -7
-6 -19 5 -10 9 -22 16 -27 15 -18 -3 -25 1 -19 11 4 7 13 7 26 0 10 -6 27 -10
36 -8z"/>
<path d="M2503 853 c9 -2 15 -9 12 -14 -9 -14 5 -11 21 6 14 13 12 15 -18 14
-18 -1 -25 -3 -15 -6z"/>
<path d="M1376 835 c-9 -26 -7 -32 5 -12 6 10 9 21 6 23 -2 3 -7 -2 -11 -11z"/>
<path d="M1872 825 c0 -16 2 -22 5 -12 2 9 2 23 0 30 -3 6 -5 -1 -5 -18z"/>
<path d="M663 826 c14 -11 15 -15 5 -19 -9 -4 -8 -6 3 -6 9 -1 20 6 23 15 3 8
2 12 -3 9 -5 -3 -12 -1 -16 5 -3 5 -12 10 -18 10 -7 0 -4 -7 6 -14z"/>
<path d="M975 829 c7 -11 35 -12 35 -1 0 4 -9 8 -20 9 -11 1 -18 -2 -15 -8z"/>
<path d="M1530 819 c0 -7 3 -9 7 -6 3 4 11 3 17 -3 7 -5 17 -5 26 0 13 8 12
10 -2 10 -9 0 -23 3 -32 6 -10 4 -16 1 -16 -7z"/>
<path d="M2511 804 c0 -11 3 -14 6 -6 3 7 2 16 -1 19 -3 4 -6 -2 -5 -13z"/>
<path d="M740 800 c0 -5 7 -7 15 -4 8 4 15 8 15 10 0 2 -7 4 -15 4 -8 0 -15
-4 -15 -10z"/>
<path d="M798 803 c12 -4 16 -16 13 -39 -2 -16 27 -26 35 -13 3 6 3 13 0 16
-3 4 -6 1 -6 -6 0 -7 -5 -9 -10 -6 -8 5 -7 11 1 21 14 17 11 21 -21 27 -14 2
-19 2 -12 0z"/>
<path d="M768 785 c-3 -3 -22 -6 -42 -7 -20 -1 -34 -3 -31 -6 3 -3 0 -11 -6
-19 -16 -19 15 -18 35 2 22 23 49 19 43 -5 -4 -14 0 -20 12 -20 10 0 17 8 17
20 0 11 -6 20 -14 20 -7 0 -10 5 -7 10 7 11 2 14 -7 5z"/>
<path d="M502 730 c0 -19 2 -27 5 -17 2 9 2 25 0 35 -3 9 -5 1 -5 -18z"/>
<path d="M1366 751 c-4 -7 -5 -15 -2 -18 9 -9 19 4 14 18 -4 11 -6 11 -12 0z"/>
<path d="M649 722 c5 -10 10 -51 10 -91 0 -40 3 -76 6 -79 14 -15 31 -7 33 14
1 13 -3 24 -8 24 -6 0 -10 5 -10 11 0 5 5 7 10 4 6 -4 10 10 10 34 0 22 -5 43
-10 46 -6 4 -8 11 -5 16 10 14 37 11 58 -8 18 -17 19 -17 16 1 -3 13 -19 23
-54 32 -66 17 -67 17 -56 -4z"/>
<path d="M728 733 c7 -3 16 -2 19 1 4 3 -2 6 -13 5 -11 0 -14 -3 -6 -6z"/>
<path d="M308 723 c6 -2 18 -2 25 0 6 3 1 5 -13 5 -14 0 -19 -2 -12 -5z"/>
<path d="M780 707 c0 -2 10 -15 22 -28 12 -14 19 -17 15 -8 -3 9 0 22 6 28 8
8 4 11 -16 11 -15 0 -27 -2 -27 -3z"/>
<path d="M1351 694 c0 -11 3 -14 6 -6 3 7 2 16 -1 19 -3 4 -6 -2 -5 -13z"/>
<path d="M2158 693 c12 -2 30 -2 40 0 9 3 -1 5 -23 4 -22 0 -30 -2 -17 -4z"/>
<path d="M2605 690 c-3 -5 -1 -10 4 -10 6 0 11 5 11 10 0 6 -2 10 -4 10 -3 0
-8 -4 -11 -10z"/>
<path d="M2261 644 c0 -11 3 -14 6 -6 3 7 2 16 -1 19 -3 4 -6 -2 -5 -13z"/>
<path d="M1231 634 c0 -11 3 -14 6 -6 3 7 2 16 -1 19 -3 4 -6 -2 -5 -13z"/>
<path d="M2700 642 c0 -5 15 -14 33 -19 93 -32 157 -59 156 -68 0 -5 10 -13
23 -16 13 -3 22 -10 21 -16 -1 -5 14 -10 33 -11 18 -1 34 3 34 7 0 8 -276 131
-294 131 -3 0 -6 -4 -6 -8z"/>
<path d="M476 570 c4 -36 11 -74 17 -85 11 -21 37 -44 50 -45 14 0 7 29 -10
39 -17 10 -17 10 1 11 16 0 14 3 -9 22 l-27 21 22 12 c19 10 20 13 6 18 -9 4
-25 21 -36 39 l-21 33 7 -65z"/>
<path d="M780 619 c0 -17 26 -57 33 -49 2 3 -4 19 -14 35 -11 17 -19 23 -19
14z"/>
<path d="M1221 564 c0 -11 3 -14 6 -6 3 7 2 16 -1 19 -3 4 -6 -2 -5 -13z"/>
<path d="M868 553 c7 -3 16 -2 19 1 4 3 -2 6 -13 5 -11 0 -14 -3 -6 -6z"/>
<path d="M1741 534 c0 -11 3 -14 6 -6 3 7 2 16 -1 19 -3 4 -6 -2 -5 -13z"/>
<path d="M2855 540 c-3 -6 1 -7 9 -4 18 7 21 14 7 14 -6 0 -13 -4 -16 -10z"/>
<path d="M520 536 c0 -3 9 -10 20 -16 11 -6 20 -8 20 -6 0 3 -9 10 -20 16 -11
6 -20 8 -20 6z"/>
<path d="M708 513 c7 -3 16 -2 19 1 4 3 -2 6 -13 5 -11 0 -14 -3 -6 -6z"/>
<path d="M570 506 c0 -2 7 -7 16 -10 8 -3 12 -2 9 4 -6 10 -25 14 -25 6z"/>
<path d="M748 503 c6 -2 18 -2 25 0 6 3 1 5 -13 5 -14 0 -19 -2 -12 -5z"/>
<path d="M808 493 c7 -3 16 -2 19 1 4 3 -2 6 -13 5 -11 0 -14 -3 -6 -6z"/>
<path d="M1088 493 c6 -2 18 -2 25 0 6 3 1 5 -13 5 -14 0 -19 -2 -12 -5z"/>
<path d="M1321 489 c-18 -6 -31 -12 -29 -14 2 -3 24 1 49 9 49 16 33 20 -20 5z"/>
<path d="M1528 483 c6 -2 18 -2 25 0 6 3 1 5 -13 5 -14 0 -19 -2 -12 -5z"/>
<path d="M1575 480 c4 -6 20 -10 37 -10 39 0 31 10 -11 15 -19 2 -29 0 -26 -5z"/>
<path d="M1340 465 c-22 -13 -23 -14 -5 -15 11 -1 15 -4 8 -6 -7 -3 -10 -11
-7 -19 4 -9 -5 -15 -28 -18 -31 -4 -30 -4 5 -3 20 0 37 5 36 10 0 5 5 12 11
16 6 4 10 17 8 28 -3 19 -5 19 -28 7z"/>
<path d="M1673 473 c15 -2 39 -2 55 0 15 2 2 4 -28 4 -30 0 -43 -2 -27 -4z"/>
<path d="M1632 430 c0 -14 2 -19 5 -12 2 6 2 18 0 25 -3 6 -5 1 -5 -13z"/>
<path d="M1370 383 c0 -11 18 -14 78 -15 161 -1 336 -10 320 -17 -9 -3 -98 -4
-197 -1 l-180 5 -5 -27 c-4 -22 -10 -27 -35 -26 -18 1 -28 5 -25 12 3 6 -1 4
-8 -5 -7 -9 -22 -18 -33 -20 -15 -3 -20 -13 -21 -36 -1 -26 4 -34 27 -44 16
-6 27 -15 24 -19 -2 -4 6 -5 19 -3 13 3 26 0 30 -5 9 -14 46 -2 46 15 0 8 5
11 13 7 6 -4 9 -4 5 1 -4 4 -31 9 -58 9 -28 1 -54 6 -58 12 -4 6 -15 13 -24
17 -31 11 -19 24 27 30 25 4 56 9 68 13 21 5 27 -1 46 -45 12 -28 26 -51 31
-51 11 0 -14 88 -29 103 -18 18 -13 47 8 47 11 0 22 -6 24 -12 3 -7 6 -8 6 -3
1 6 32 9 78 7 207 -7 225 -6 240 13 20 28 6 32 -167 39 -85 3 -176 8 -202 10
-36 2 -48 0 -48 -11z"/>
<path d="M2145 390 c-19 -8 -19 -9 3 -9 12 -1 22 4 22 9 0 6 -1 10 -2 9 -2 0
-12 -4 -23 -9z"/>
<path d="M2185 390 c3 -5 8 -10 11 -10 2 0 4 5 4 10 0 6 -5 10 -11 10 -5 0 -7
-4 -4 -10z"/>
<path d="M2000 379 c-39 -5 -37 -6 23 -6 37 -1 67 2 67 6 0 8 -28 8 -90 0z"/>
<path d="M1310 376 c0 -2 7 -6 15 -10 8 -3 15 -1 15 4 0 6 -7 10 -15 10 -8 0
-15 -2 -15 -4z"/>
<path d="M2401 363 c-67 -10 -96 -11 -101 -3 -4 6 -21 10 -38 8 -17 -1 -28 -6
-26 -10 3 -5 10 -6 15 -2 6 3 25 -1 44 -10 34 -16 42 -16 154 10 18 4 22 1 18
-9 -7 -19 20 -12 53 13 l25 20 -25 -1 c-14 -1 -67 -8 -119 -16z"/>
<path d="M2195 360 c3 -5 10 -10 16 -10 5 0 9 5 9 10 0 6 -7 10 -16 10 -8 0
-12 -4 -9 -10z"/>
<path d="M2571 314 c0 -11 3 -14 6 -6 3 7 2 16 -1 19 -3 4 -6 -2 -5 -13z"/>
<path d="M2420 300 c-8 -5 -11 -12 -7 -16 4 -4 15 0 24 9 18 18 8 23 -17 7z"/>
<path d="M520 270 c-33 -5 -33 -6 -9 -11 14 -3 56 -7 94 -8 38 -1 74 -5 80 -8
7 -4 7 -2 0 5 -5 5 -28 12 -50 15 -22 2 -49 7 -60 9 -11 2 -36 2 -55 -2z"/>
<path d="M2573 255 c0 -14 3 -27 7 -30 4 -3 8 7 8 20 0 14 -4 27 -8 30 -4 3
-7 -7 -7 -20z"/>
<path d="M328 253 c6 -2 18 -2 25 0 6 3 1 5 -13 5 -14 0 -19 -2 -12 -5z"/>
<path d="M258 243 c6 -2 18 -2 25 0 6 3 1 5 -13 5 -14 0 -19 -2 -12 -5z"/>
<path d="M708 243 c7 -3 16 -2 19 1 4 3 -2 6 -13 5 -11 0 -14 -3 -6 -6z"/>
<path d="M1338 233 c6 -2 18 -2 25 0 6 3 1 5 -13 5 -14 0 -19 -2 -12 -5z"/>
<path d="M100 220 c0 -6 7 -10 15 -10 8 0 15 2 15 4 0 2 -7 6 -15 10 -8 3 -15
1 -15 -4z"/>
<path d="M2587 189 c4 -13 8 -18 11 -10 2 7 -1 18 -6 23 -8 8 -9 4 -5 -13z"/>
<path d="M550 196 c0 -2 7 -7 16 -10 8 -3 12 -2 9 4 -6 10 -25 14 -25 6z"/>
<path d="M2290 192 c0 -11 30 -38 50 -45 9 -3 10 -6 3 -6 -7 -1 -13 -6 -13
-12 0 -5 4 -8 9 -5 11 7 23 -22 15 -35 -3 -6 0 -16 6 -24 7 -8 8 -20 4 -27
-16 -25 -12 -38 12 -38 13 0 24 4 24 9 0 5 -6 8 -12 7 -7 0 -14 4 -14 9 -1 6
2 9 7 7 16 -4 10 28 -6 34 -10 4 -12 10 -6 18 6 7 4 18 -4 30 -9 12 -11 24 -5
35 6 12 3 20 -10 29 -16 10 -18 9 -14 -3 4 -8 2 -15 -4 -15 -5 0 -12 9 -15 20
-5 19 -27 29 -27 12z"/>
<path d="M2275 150 c3 -5 11 -10 16 -10 6 0 7 5 4 10 -3 6 -11 10 -16 10 -6 0
-7 -4 -4 -10z"/>
<path d="M1383 118 c20 -47 34 -68 49 -72 25 -6 22 3 -8 31 -15 13 -23 30 -20
38 3 9 -1 15 -10 15 -9 0 -14 -6 -11 -12z"/>
<path d="M695 96 c-18 -13 -18 -14 8 -9 15 3 27 9 27 14 0 13 -13 11 -35 -5z"/>
<path d="M905 70 c-3 -6 1 -7 9 -4 18 7 21 14 7 14 -6 0 -13 -4 -16 -10z"/>
<path d="M1270 70 c0 -6 7 -10 15 -10 8 0 15 2 15 4 0 2 -7 6 -15 10 -8 3 -15
1 -15 -4z"/>
<path d="M2518 3 c7 -3 16 -2 19 1 4 3 -2 6 -13 5 -11 0 -14 -3 -6 -6z"/>
</g>
</svg>
